<?xml version="1.0" encoding="UTF-8"?><svg xmlns="http://www.w3.org/2000/svg" xmlns:xlink="http://www.w3.org/1999/xlink" contentStyleType="text/css" height="257px" preserveAspectRatio="none" style="width:735px;height:257px;background:#FFFFFF;" version="1.1" viewBox="0 0 735 257" width="735px" zoomAndPan="magnify">
    <defs/>
    <g>
        <!--class Ingredient-->
        <g id="elem_Ingredient">
            <rect codeLine="1" fill="#F1F1F1" height="118.4375" id="Ingredient" rx="2.5" ry="2.5" style="stroke:#181818;stroke-width:0.5;" width="160" x="288" y="7"/>
            <ellipse cx="332.25" cy="23" fill="#ADD1B2" rx="11" ry="11" style="stroke:#181818;stroke-width:1.0;"/>
            <path d="M335.0156,18.875 Q335.1719,18.6563 335.3594,18.5469 Q335.5469,18.4375 335.7656,18.4375 Q336.1406,18.4375 336.375,18.7031 Q336.6094,18.9531 336.6094,19.5625 L336.6094,21.0156 Q336.6094,21.625 336.375,21.8906 Q336.1406,22.1563 335.7656,22.1563 Q335.4219,22.1563 335.2188,21.9531 Q335.0156,21.7656 334.9063,21.25 Q334.8594,20.8906 334.6719,20.7031 Q334.3438,20.3281 333.7344,20.1094 Q333.125,19.8906 332.5,19.8906 Q331.7344,19.8906 331.0938,20.2188 Q330.4688,20.5469 329.9688,21.2969 Q329.4844,22.0469 329.4844,23.0781 L329.4844,24.1719 Q329.4844,25.4063 330.375,26.2344 Q331.2656,27.0469 332.8594,27.0469 Q333.7969,27.0469 334.4531,26.7969 Q334.8438,26.6406 335.2656,26.2031 Q335.5313,25.9375 335.6719,25.8594 Q335.8281,25.7813 336.0313,25.7813 Q336.3594,25.7813 336.6094,26.0469 Q336.875,26.2969 336.875,26.6406 Q336.875,26.9844 336.5313,27.3906 Q336.0313,27.9688 335.2344,28.2969 Q334.1563,28.75 332.8594,28.75 Q331.3438,28.75 330.1406,28.125 Q329.1563,27.625 328.4688,26.5625 Q327.7813,25.4844 327.7813,24.2031 L327.7813,23.0469 Q327.7813,21.7188 328.3906,20.5781 Q329.0156,19.4219 330.1094,18.8125 Q331.2031,18.1875 332.4375,18.1875 Q333.1719,18.1875 333.8125,18.3594 Q334.4688,18.5156 335.0156,18.875 Z " fill="#000000"/>
            <text fill="#000000" font-family="sans-serif" font-size="14" lengthAdjust="spacing" textLength="63" x="352.75" y="28.7285">Ingredient</text>
            <line style="stroke:#181818;stroke-width:0.5;" x1="289" x2="447" y1="39" y2="39"/>
            <rect fill="none" height="6" style="stroke:#C82930;stroke-width:1.0;" width="6" x="296" y="50.3047"/>
            <text fill="#000000" font-family="sans-serif" font-size="14" lengthAdjust="spacing" textLength="80" x="308" y="57.5332">name: String</text>
            <rect fill="none" height="6" style="stroke:#C82930;stroke-width:1.0;" width="6" x="296" y="67.9141"/>
            <text fill="#000000" font-family="sans-serif" font-size="14" lengthAdjust="spacing" textLength="101" x="308" y="75.1426">quantity: double</text>
            <line style="stroke:#181818;stroke-width:0.5;" x1="289" x2="447" y1="82.2188" y2="82.2188"/>
            <ellipse cx="299" cy="96.5234" fill="#84BE84" rx="3" ry="3" style="stroke:#038048;stroke-width:1.0;"/>
            <text fill="#000000" font-family="sans-serif" font-size="14" lengthAdjust="spacing" textLength="111" x="308" y="100.752">getName(): String</text>
            <ellipse cx="299" cy="114.1328" fill="#84BE84" rx="3" ry="3" style="stroke:#038048;stroke-width:1.0;"/>
            <text fill="#000000" font-family="sans-serif" font-size="14" lengthAdjust="spacing" textLength="134" x="308" y="118.3613">getQuantity(): double</text>
        </g>
        <!--class Fruit-->
        <g id="elem_Fruit">
            <rect codeLine="8" fill="#F1F1F1" height="65.6094" id="Fruit" rx="2.5" ry="2.5" style="stroke:#181818;stroke-width:0.5;" width="98" x="7" y="185"/>
            <ellipse cx="38.65" cy="201" fill="#ADD1B2" rx="11" ry="11" style="stroke:#181818;stroke-width:1.0;"/>
            <path d="M41.4156,196.875 Q41.5719,196.6563 41.7594,196.5469 Q41.9469,196.4375 42.1656,196.4375 Q42.5406,196.4375 42.775,196.7031 Q43.0094,196.9531 43.0094,197.5625 L43.0094,199.0156 Q43.0094,199.625 42.775,199.8906 Q42.5406,200.1563 42.1656,200.1563 Q41.8219,200.1563 41.6188,199.9531 Q41.4156,199.7656 41.3063,199.25 Q41.2594,198.8906 41.0719,198.7031 Q40.7438,198.3281 40.1344,198.1094 Q39.525,197.8906 38.9,197.8906 Q38.1344,197.8906 37.4938,198.2188 Q36.8688,198.5469 36.3688,199.2969 Q35.8844,200.0469 35.8844,201.0781 L35.8844,202.1719 Q35.8844,203.4063 36.775,204.2344 Q37.6656,205.0469 39.2594,205.0469 Q40.1969,205.0469 40.8531,204.7969 Q41.2438,204.6406 41.6656,204.2031 Q41.9313,203.9375 42.0719,203.8594 Q42.2281,203.7813 42.4313,203.7813 Q42.7594,203.7813 43.0094,204.0469 Q43.275,204.2969 43.275,204.6406 Q43.275,204.9844 42.9313,205.3906 Q42.4313,205.9688 41.6344,206.2969 Q40.5563,206.75 39.2594,206.75 Q37.7438,206.75 36.5406,206.125 Q35.5563,205.625 34.8688,204.5625 Q34.1813,203.4844 34.1813,202.2031 L34.1813,201.0469 Q34.1813,199.7188 34.7906,198.5781 Q35.4156,197.4219 36.5094,196.8125 Q37.6031,196.1875 38.8375,196.1875 Q39.5719,196.1875 40.2125,196.3594 Q40.8688,196.5156 41.4156,196.875 Z " fill="#000000"/>
            <text fill="#000000" font-family="sans-serif" font-size="14" lengthAdjust="spacing" textLength="29" x="56.35" y="206.7285">Fruit</text>
            <line style="stroke:#181818;stroke-width:0.5;" x1="8" x2="104" y1="217" y2="217"/>
            <rect fill="none" height="6" style="stroke:#C82930;stroke-width:1.0;" width="6" x="15" y="228.3047"/>
            <text fill="#000000" font-family="sans-serif" font-size="14" lengthAdjust="spacing" textLength="72" x="27" y="235.5332">type: String</text>
            <line style="stroke:#181818;stroke-width:0.5;" x1="8" x2="104" y1="242.6094" y2="242.6094"/>
        </g>
        <!--class Milk-->
        <g id="elem_Milk">
            <rect codeLine="11" fill="#F1F1F1" height="65.6094" id="Milk" rx="2.5" ry="2.5" style="stroke:#181818;stroke-width:0.5;" width="143" x="140.5" y="185"/>
            <ellipse cx="195.75" cy="201" fill="#ADD1B2" rx="11" ry="11" style="stroke:#181818;stroke-width:1.0;"/>
            <path d="M198.5156,196.875 Q198.6719,196.6563 198.8594,196.5469 Q199.0469,196.4375 199.2656,196.4375 Q199.6406,196.4375 199.875,196.7031 Q200.1094,196.9531 200.1094,197.5625 L200.1094,199.0156 Q200.1094,199.625 199.875,199.8906 Q199.6406,200.1563 199.2656,200.1563 Q198.9219,200.1563 198.7188,199.9531 Q198.5156,199.7656 198.4063,199.25 Q198.3594,198.8906 198.1719,198.7031 Q197.8438,198.3281 197.2344,198.1094 Q196.625,197.8906 196,197.8906 Q195.2344,197.8906 194.5938,198.2188 Q193.9688,198.5469 193.4688,199.2969 Q192.9844,200.0469 192.9844,201.0781 L192.9844,202.1719 Q192.9844,203.4063 193.875,204.2344 Q194.7656,205.0469 196.3594,205.0469 Q197.2969,205.0469 197.9531,204.7969 Q198.3438,204.6406 198.7656,204.2031 Q199.0313,203.9375 199.1719,203.8594 Q199.3281,203.7813 199.5313,203.7813 Q199.8594,203.7813 200.1094,204.0469 Q200.375,204.2969 200.375,204.6406 Q200.375,204.9844 200.0313,205.3906 Q199.5313,205.9688 198.7344,206.2969 Q197.6563,206.75 196.3594,206.75 Q194.8438,206.75 193.6406,206.125 Q192.6563,205.625 191.9688,204.5625 Q191.2813,203.4844 191.2813,202.2031 L191.2813,201.0469 Q191.2813,199.7188 191.8906,198.5781 Q192.5156,197.4219 193.6094,196.8125 Q194.7031,196.1875 195.9375,196.1875 Q196.6719,196.1875 197.3125,196.3594 Q197.9688,196.5156 198.5156,196.875 Z " fill="#000000"/>
            <text fill="#000000" font-family="sans-serif" font-size="14" lengthAdjust="spacing" textLength="24" x="216.25" y="206.7285">Milk</text>
            <line style="stroke:#181818;stroke-width:0.5;" x1="141.5" x2="282.5" y1="217" y2="217"/>
            <rect fill="none" height="6" style="stroke:#C82930;stroke-width:1.0;" width="6" x="148.5" y="228.3047"/>
            <text fill="#000000" font-family="sans-serif" font-size="14" lengthAdjust="spacing" textLength="117" x="160.5" y="235.5332">fatContent: double</text>
            <line style="stroke:#181818;stroke-width:0.5;" x1="141.5" x2="282.5" y1="242.6094" y2="242.6094"/>
        </g>
        <!--class Sugar-->
        <g id="elem_Sugar">
            <rect codeLine="14" fill="#F1F1F1" height="65.6094" id="Sugar" rx="2.5" ry="2.5" style="stroke:#181818;stroke-width:0.5;" width="98" x="319" y="185"/>
            <ellipse cx="346.6" cy="201" fill="#ADD1B2" rx="11" ry="11" style="stroke:#181818;stroke-width:1.0;"/>
            <path d="M349.3656,196.875 Q349.5219,196.6563 349.7094,196.5469 Q349.8969,196.4375 350.1156,196.4375 Q350.4906,196.4375 350.725,196.7031 Q350.9594,196.9531 350.9594,197.5625 L350.9594,199.0156 Q350.9594,199.625 350.725,199.8906 Q350.4906,200.1563 350.1156,200.1563 Q349.7719,200.1563 349.5688,199.9531 Q349.3656,199.7656 349.2563,199.25 Q349.2094,198.8906 349.0219,198.7031 Q348.6938,198.3281 348.0844,198.1094 Q347.475,197.8906 346.85,197.8906 Q346.0844,197.8906 345.4438,198.2188 Q344.8188,198.5469 344.3188,199.2969 Q343.8344,200.0469 343.8344,201.0781 L343.8344,202.1719 Q343.8344,203.4063 344.725,204.2344 Q345.6156,205.0469 347.2094,205.0469 Q348.1469,205.0469 348.8031,204.7969 Q349.1938,204.6406 349.6156,204.2031 Q349.8813,203.9375 350.0219,203.8594 Q350.1781,203.7813 350.3813,203.7813 Q350.7094,203.7813 350.9594,204.0469 Q351.225,204.2969 351.225,204.6406 Q351.225,204.9844 350.8813,205.3906 Q350.3813,205.9688 349.5844,206.2969 Q348.5063,206.75 347.2094,206.75 Q345.6938,206.75 344.4906,206.125 Q343.5063,205.625 342.8188,204.5625 Q342.1313,203.4844 342.1313,202.2031 L342.1313,201.0469 Q342.1313,199.7188 342.7406,198.5781 Q343.3656,197.4219 344.4594,196.8125 Q345.5531,196.1875 346.7875,196.1875 Q347.5219,196.1875 348.1625,196.3594 Q348.8188,196.5156 349.3656,196.875 Z " fill="#000000"/>
            <text fill="#000000" font-family="sans-serif" font-size="14" lengthAdjust="spacing" textLength="38" x="363.4" y="206.7285">Sugar</text>
            <line style="stroke:#181818;stroke-width:0.5;" x1="320" x2="416" y1="217" y2="217"/>
            <rect fill="none" height="6" style="stroke:#C82930;stroke-width:1.0;" width="6" x="327" y="228.3047"/>
            <text fill="#000000" font-family="sans-serif" font-size="14" lengthAdjust="spacing" textLength="72" x="339" y="235.5332">type: String</text>
            <line style="stroke:#181818;stroke-width:0.5;" x1="320" x2="416" y1="242.6094" y2="242.6094"/>
        </g>
        <!--class Ice-->
        <g id="elem_Ice">
            <rect codeLine="17" fill="#F1F1F1" height="65.6094" id="Ice" rx="2.5" ry="2.5" style="stroke:#181818;stroke-width:0.5;" width="128" x="452" y="185"/>
            <ellipse cx="502.75" cy="201" fill="#ADD1B2" rx="11" ry="11" style="stroke:#181818;stroke-width:1.0;"/>
            <path d="M505.5156,196.875 Q505.6719,196.6563 505.8594,196.5469 Q506.0469,196.4375 506.2656,196.4375 Q506.6406,196.4375 506.875,196.7031 Q507.1094,196.9531 507.1094,197.5625 L507.1094,199.0156 Q507.1094,199.625 506.875,199.8906 Q506.6406,200.1563 506.2656,200.1563 Q505.9219,200.1563 505.7188,199.9531 Q505.5156,199.7656 505.4063,199.25 Q505.3594,198.8906 505.1719,198.7031 Q504.8438,198.3281 504.2344,198.1094 Q503.625,197.8906 503,197.8906 Q502.2344,197.8906 501.5938,198.2188 Q500.9688,198.5469 500.4688,199.2969 Q499.9844,200.0469 499.9844,201.0781 L499.9844,202.1719 Q499.9844,203.4063 500.875,204.2344 Q501.7656,205.0469 503.3594,205.0469 Q504.2969,205.0469 504.9531,204.7969 Q505.3438,204.6406 505.7656,204.2031 Q506.0313,203.9375 506.1719,203.8594 Q506.3281,203.7813 506.5313,203.7813 Q506.8594,203.7813 507.1094,204.0469 Q507.375,204.2969 507.375,204.6406 Q507.375,204.9844 507.0313,205.3906 Q506.5313,205.9688 505.7344,206.2969 Q504.6563,206.75 503.3594,206.75 Q501.8438,206.75 500.6406,206.125 Q499.6563,205.625 498.9688,204.5625 Q498.2813,203.4844 498.2813,202.2031 L498.2813,201.0469 Q498.2813,199.7188 498.8906,198.5781 Q499.5156,197.4219 500.6094,196.8125 Q501.7031,196.1875 502.9375,196.1875 Q503.6719,196.1875 504.3125,196.3594 Q504.9688,196.5156 505.5156,196.875 Z " fill="#000000"/>
            <text fill="#000000" font-family="sans-serif" font-size="14" lengthAdjust="spacing" textLength="18" x="523.25" y="206.7285">Ice</text>
            <line style="stroke:#181818;stroke-width:0.5;" x1="453" x2="579" y1="217" y2="217"/>
            <rect fill="none" height="6" style="stroke:#C82930;stroke-width:1.0;" width="6" x="460" y="228.3047"/>
            <text fill="#000000" font-family="sans-serif" font-size="14" lengthAdjust="spacing" textLength="102" x="472" y="235.5332">cubeSize: String</text>
            <line style="stroke:#181818;stroke-width:0.5;" x1="453" x2="579" y1="242.6094" y2="242.6094"/>
        </g>
        <!--class Toppings-->
        <g id="elem_Toppings">
            <rect codeLine="20" fill="#F1F1F1" height="65.6094" id="Toppings" rx="2.5" ry="2.5" style="stroke:#181818;stroke-width:0.5;" width="113" x="615.5" y="185"/>
            <ellipse cx="640.4" cy="201" fill="#ADD1B2" rx="11" ry="11" style="stroke:#181818;stroke-width:1.0;"/>
            <path d="M643.1656,196.875 Q643.3219,196.6563 643.5094,196.5469 Q643.6969,196.4375 643.9156,196.4375 Q644.2906,196.4375 644.525,196.7031 Q644.7594,196.9531 644.7594,197.5625 L644.7594,199.0156 Q644.7594,199.625 644.525,199.8906 Q644.2906,200.1563 643.9156,200.1563 Q643.5719,200.1563 643.3688,199.9531 Q643.1656,199.7656 643.0563,199.25 Q643.0094,198.8906 642.8219,198.7031 Q642.4938,198.3281 641.8844,198.1094 Q641.275,197.8906 640.65,197.8906 Q639.8844,197.8906 639.2438,198.2188 Q638.6188,198.5469 638.1188,199.2969 Q637.6344,200.0469 637.6344,201.0781 L637.6344,202.1719 Q637.6344,203.4063 638.525,204.2344 Q639.4156,205.0469 641.0094,205.0469 Q641.9469,205.0469 642.6031,204.7969 Q642.9938,204.6406 643.4156,204.2031 Q643.6813,203.9375 643.8219,203.8594 Q643.9781,203.7813 644.1813,203.7813 Q644.5094,203.7813 644.7594,204.0469 Q645.025,204.2969 645.025,204.6406 Q645.025,204.9844 644.6813,205.3906 Q644.1813,205.9688 643.3844,206.2969 Q642.3063,206.75 641.0094,206.75 Q639.4938,206.75 638.2906,206.125 Q637.3063,205.625 636.6188,204.5625 Q635.9313,203.4844 635.9313,202.2031 L635.9313,201.0469 Q635.9313,199.7188 636.5406,198.5781 Q637.1656,197.4219 638.2594,196.8125 Q639.3531,196.1875 640.5875,196.1875 Q641.3219,196.1875 641.9625,196.3594 Q642.6188,196.5156 643.1656,196.875 Z " fill="#000000"/>
            <text fill="#000000" font-family="sans-serif" font-size="14" lengthAdjust="spacing" textLength="59" x="656.6" y="206.7285">Toppings</text>
            <line style="stroke:#181818;stroke-width:0.5;" x1="616.5" x2="727.5" y1="217" y2="217"/>
            <rect fill="none" height="6" style="stroke:#C82930;stroke-width:1.0;" width="6" x="623.5" y="228.3047"/>
            <text fill="#000000" font-family="sans-serif" font-size="14" lengthAdjust="spacing" textLength="87" x="635.5" y="235.5332">variety: String</text>
            <line style="stroke:#181818;stroke-width:0.5;" x1="616.5" x2="727.5" y1="242.6094" y2="242.6094"/>
        </g>
        <!--reverse link Ingredient to Fruit-->
        <g id="link_Ingredient_Fruit">
            <path codeLine="24" d="M271.4277,113.4299 C213.8377,141.1199 154.31,169.74 105.38,193.26 " fill="none" id="Ingredient-backto-Fruit" style="stroke:#181818;stroke-width:1.0;"/>
            <polygon fill="none" points="287.65,105.63,268.8278,108.0224,274.0277,118.8373,287.65,105.63" style="stroke:#181818;stroke-width:1.0;"/>
        </g>
        <!--reverse link Ingredient to Milk-->
        <g id="link_Ingredient_Milk">
            <path codeLine="25" d="M294.2649,137.8958 C273.2149,158.1358 263.39,167.59 245.37,184.92 " fill="none" id="Ingredient-backto-Milk" style="stroke:#181818;stroke-width:1.0;"/>
            <polygon fill="none" points="307.24,125.42,290.1063,133.5708,298.4235,142.2209,307.24,125.42" style="stroke:#181818;stroke-width:1.0;"/>
        </g>
        <!--reverse link Ingredient to Sugar-->
        <g id="link_Ingredient_Sugar">
            <path codeLine="26" d="M368,143.42 C368,163.66 368,167.59 368,184.92 " fill="none" id="Ingredient-backto-Sugar" style="stroke:#181818;stroke-width:1.0;"/>
            <polygon fill="none" points="368,125.42,362,143.42,374,143.42,368,125.42" style="stroke:#181818;stroke-width:1.0;"/>
        </g>
        <!--reverse link Ingredient to Ice-->
        <g id="link_Ingredient_Ice">
            <path codeLine="27" d="M438.2822,138.2331 C458.2522,158.4731 467.25,167.59 484.34,184.92 " fill="none" id="Ingredient-backto-Ice" style="stroke:#181818;stroke-width:1.0;"/>
            <polygon fill="none" points="425.64,125.42,434.0111,142.4472,442.5532,134.019,425.64,125.42" style="stroke:#181818;stroke-width:1.0;"/>
        </g>
        <!--reverse link Ingredient to Toppings-->
        <g id="link_Ingredient_Toppings">
            <path codeLine="28" d="M464.4124,114.5738 C517.0124,140.5238 568.33,165.85 615.36,189.05 " fill="none" id="Ingredient-backto-Toppings" style="stroke:#181818;stroke-width:1.0;"/>
            <polygon fill="none" points="448.27,106.61,461.7578,119.9546,467.067,109.193,448.27,106.61" style="stroke:#181818;stroke-width:1.0;"/>
        </g>
        <!--SRC=[VP112i8m44NtESKi5Ua5YZj1w491wWNIT0p1cjPa8bJjtKtJL0i1btdpcFydek7MGg6bmLgX9dWnW0mqls4E9HcbPG1tnpKfwdEeMrSrwE469DBHYwlrGWtq5Ern4ls1CH6oziQfEORwxXSpHE6WcckSNpZjMas-rsBFP9LESlDlJI4mZeMhi5JFL3ctNUVVDdeFRXIE9turjlYOxJlBfl897HidC1HCg6-LiBa6-m00]-->
    </g>
</svg>
